<?xml version="1.0" encoding="utf-8"?>
<!-- Generator: Adobe Illustrator 25.2.0, SVG Export Plug-In . SVG Version: 6.00 Build 0)  -->
<svg version="1.1" id="图层_1" xmlns="http://www.w3.org/2000/svg" xmlns:xlink="http://www.w3.org/1999/xlink" x="0px" y="0px"
	 viewBox="0 0 354 100" style="enable-background:new 0 0 354 100;" xml:space="preserve">
<style type="text/css">
	.st0{fill:#F37726;}
	.st1{fill:#4C4C4C;}
	.st2{font-family:'Futura-Medium';}
	.st3{font-size:60px;}
	.st4{fill:#545454;}
	.st5{font-size:72px;}
</style>
<path class="st0" d="M124.4,87.6l-1.6-4.7c2.9-1,5-2.6,6.2-5c1.3-2.4,1.9-5.3,1.9-8.8v-8.2c0-2.9,0.6-5.4,1.8-7.5
	c1.2-2.1,3.1-3.8,5.6-4.9c-2.5-1.1-4.4-2.7-5.6-4.8c-1.2-2.1-1.8-4.7-1.8-7.6v-8.2c0-3.5-0.6-6.5-1.9-8.9c-1.3-2.4-3.3-4.1-6.2-5
	l1.6-4.7c5.2,1.5,8.9,3.8,11.1,7c2.2,3.2,3.3,7,3.3,11.6v8.2c0,3,0.7,5.4,2,7c1.4,1.6,3.5,2.4,6.3,2.4v5.9c-2.9,0-5,0.8-6.3,2.5
	c-1.4,1.7-2,4-2,7V69c0,4.5-1.1,8.4-3.3,11.6C133.3,83.8,129.6,86.1,124.4,87.6z"/>
<path class="st0" d="M36.3,87.6c-5.2-1.5-8.9-3.8-11.1-7c-2.2-3.2-3.3-7.1-3.3-11.6v-8.2c0-3-0.7-5.3-2-7c-1.4-1.7-3.5-2.5-6.3-2.5
	v-5.9c2.8,0,4.9-0.8,6.3-2.4c1.4-1.7,2-4,2-7v-8.2c0-4.6,1.1-8.4,3.3-11.6c2.2-3.2,5.9-5.5,11.1-7l1.6,4.7c-2.9,0.9-5,2.6-6.3,5
	c-1.2,2.4-1.8,5.4-1.8,8.9v8.2c0,2.8-0.6,5.3-1.7,7.4c-1.1,2.1-2.8,3.8-5.1,5c2.3,1.2,4,2.9,5.1,5.1c1.1,2.1,1.7,4.6,1.7,7.3V69
	c0,3.5,0.6,6.5,1.8,8.8c1.3,2.4,3.3,4.1,6.3,5L36.3,87.6z"/>
<text transform="matrix(1 0 0 1 154.6403 69.5641)" class="st1 st2 st3">System</text>
<text transform="matrix(1 0 0 1 43.0312 72.2461)" class="st4 st2 st5">AI</text>
</svg>
